<svg xmlns="http://www.w3.org/2000/svg" width="805" height="600"><rect width="805" height="600" x="0" y="0" fill="#FFFFFF" id="background"/><g id="viz"><g transform="translate(0,0)"><g transform="translate(90,10)"><g><path fill="#e377c2" d="M0,569.9999990975C12.17926932880204,569.9999990975,12.17926932880204,569.99999926375,24.35853865760408,569.99999926375C36.504531294250924,569.99999926375,36.504531294250924,570,48.65052393089777,570C60.796516567544614,570,60.796516567544614,570,72.94250920419145,570C85.08850184083829,570,85.08850184083829,570,97.23449447748513,570C109.41376380628716,570,109.41376380628716,570,121.59303313508921,570C133.73902577173607,570,133.73902577173607,570,145.8850184083829,570C158.03101104502974,570,158.03101104502974,570,170.17700368167658,570C182.32299631832342,570,182.32299631832342,570,194.46898895497026,570C206.6482582837723,570,206.6482582837723,570,218.82752761257433,570C230.97352024922117,570,230.97352024922117,570,243.119512885868,570C255.26550552251484,570,255.26550552251484,570,267.4114981591617,570C279.55610426696876,570,279.55610426696876,570,291.70071037477584,570C303.8799797035779,570,303.8799797035779,570,316.05924903237985,570C328.2066281978665,570,328.2066281978665,570,340.35400736335316,570C352.5,570,352.5,570,364.64599263664684,570C376.7919852732937,570,376.7919852732937,570,388.9379779099405,570C401.11724723874255,570,401.11724723874255,570,413.2965165675446,570C425.4425092041914,570,425.4425092041914,570,437.5885018408383,570C449.7344944774851,570,449.7344944774851,570,461.88048711413194,570C474.0264797507788,570,474.0264797507788,570,486.17247238742567,570C498.3517417162277,570,498.3517417162277,570,510.53101104502974,570C522.6770036816765,570,522.6770036816765,570,534.8229963183234,570C546.9689889549702,570,546.9689889549702,570,559.1149815916172,570C571.260974228264,570,571.260974228264,570,583.4069668649108,570C595.5862361937128,570,595.5862361937128,570,607.7655055225148,570C619.9114981591617,570,619.9114981591617,570,632.0574907958086,570C644.2034834324554,570,644.2034834324554,570,656.3494760691023,570C668.4954687057491,570,668.4954687057491,570,680.6414613423959,570C692.8207306711979,570,692.8207306711979,570,705,570L705,570C692.8207306711979,570,692.8207306711979,570,680.6414613423959,570C668.4954687057491,570,668.4954687057491,570,656.3494760691023,570C644.2034834324554,570,644.2034834324554,570,632.0574907958086,570C619.9114981591617,570,619.9114981591617,570,607.7655055225148,570C595.5862361937128,570,595.5862361937128,570,583.4069668649108,570C571.260974228264,570,571.260974228264,570,559.1149815916172,570C546.9689889549702,570,546.9689889549702,570,534.8229963183234,570C522.6770036816765,570,522.6770036816765,570,510.53101104502974,570C498.3517417162277,570,498.3517417162277,570,486.17247238742567,570C474.0264797507788,570,474.0264797507788,570,461.88048711413194,570C449.7344944774851,570,449.7344944774851,570,437.5885018408383,570C425.4425092041914,570,425.4425092041914,570,413.2965165675446,570C401.11724723874255,570,401.11724723874255,570,388.9379779099405,570C376.7919852732937,570,376.7919852732937,570,364.64599263664684,570C352.5,570,352.5,570,340.35400736335316,570C328.2066281978665,570,328.2066281978665,570,316.05924903237985,570C303.8799797035779,570,303.8799797035779,570,291.70071037477584,570C279.55610426696876,570,279.55610426696876,570,267.4114981591617,570C255.26550552251484,570,255.26550552251484,570,243.119512885868,570C230.97352024922117,570,230.97352024922117,570,218.82752761257433,570C206.6482582837723,570,206.6482582837723,570,194.46898895497026,570C182.32299631832342,570,182.32299631832342,570,170.17700368167658,570C158.03101104502974,570,158.03101104502974,570,145.8850184083829,570C133.73902577173607,570,133.73902577173607,570,121.59303313508921,570C109.41376380628716,570,109.41376380628716,570,97.23449447748513,570C85.08850184083829,570,85.08850184083829,570,72.94250920419145,570C60.796516567544614,570,60.796516567544614,570,48.65052393089777,570C36.504531294250924,570,36.504531294250924,570,24.35853865760408,570C12.17926932880204,570,12.17926932880204,570,0,570Z"><title>Paraguay</title></path><path fill="#9467bd" d="M0,569.9999990975C12.17926932880204,569.9999990975,12.17926932880204,569.99999926375,24.35853865760408,569.99999926375C36.504531294250924,569.99999926375,36.504531294250924,569.9783899225,48.65052393089777,569.9783899225C60.796516567544614,569.9783899225,60.796516567544614,564.69622255625,72.94250920419145,564.69622255625C85.08850184083829,564.69622255625,85.08850184083829,534.2376542962501,97.23449447748513,534.2376542962501C109.41376380628716,534.2376542962501,109.41376380628716,513.61544735875,121.59303313508921,513.61544735875C133.73902577173607,513.61544735875,133.73902577173607,513.5305362400001,145.8850184083829,513.5305362400001C158.03101104502974,513.5305362400001,158.03101104502974,565.1530794325,170.17700368167658,565.1530794325C182.32299631832342,565.1530794325,182.32299631832342,521.38773280375,194.46898895497026,521.38773280375C206.6482582837723,521.38773280375,206.6482582837723,480.59932270499996,218.82752761257433,480.59932270499996C230.97352024922117,480.59932270499996,230.97352024922117,488.96325527749997,243.119512885868,488.96325527749997C255.26550552251484,488.96325527749997,255.26550552251484,454.59402180250004,267.4114981591617,454.59402180250004C279.55610426696876,454.59402180250004,279.55610426696876,488.26787945499996,291.70071037477584,488.26787945499996C303.8799797035779,488.26787945499996,303.8799797035779,445.04333897,316.05924903237985,445.04333897C328.2066281978665,445.04333897,328.2066281978665,468.709095915,340.35400736335316,468.709095915C352.5,468.709095915,352.5,460.43333479,364.64599263664684,460.43333479C376.7919852732937,460.43333479,376.7919852732937,462.09904502999996,388.9379779099405,462.09904502999996C401.11724723874255,462.09904502999996,401.11724723874255,488.10904166374996,413.2965165675446,488.10904166374996C425.4425092041914,488.10904166374996,425.4425092041914,487.453586195,437.5885018408383,487.453586195C449.7344944774851,487.453586195,449.7344944774851,563.83901399625,461.88048711413194,563.83901399625C474.0264797507788,563.83901399625,474.0264797507788,445.971341435,486.17247238742567,445.971341435C498.3517417162277,445.971341435,498.3517417162277,402.06865891125,510.53101104502974,402.06865891125C522.6770036816765,402.06865891125,522.6770036816765,440.44873997,534.8229963183234,440.44873997C546.9689889549702,440.44873997,546.9689889549702,429.2099447575,559.1149815916172,429.2099447575C571.260974228264,429.2099447575,571.260974228264,557.7719898325,583.4069668649108,557.7719898325C595.5862361937128,557.7719898325,595.5862361937128,475.4986521975,607.7655055225148,475.4986521975C619.9114981591617,475.4986521975,619.9114981591617,475.47464258625,632.0574907958086,475.47464258625C644.2034834324554,475.47464258625,644.2034834324554,423.69821381,656.3494760691023,423.69821381C668.4954687057491,423.69821381,668.4954687057491,339.90335140124995,680.6414613423959,339.90335140124995C692.8207306711979,339.90335140124995,692.8207306711979,362.0729023075,705,362.0729023075L705,570C692.8207306711979,570,692.8207306711979,570,680.6414613423959,570C668.4954687057491,570,668.4954687057491,570,656.3494760691023,570C644.2034834324554,570,644.2034834324554,570,632.0574907958086,570C619.9114981591617,570,619.9114981591617,570,607.7655055225148,570C595.5862361937128,570,595.5862361937128,570,583.4069668649108,570C571.260974228264,570,571.260974228264,570,559.1149815916172,570C546.9689889549702,570,546.9689889549702,570,534.8229963183234,570C522.6770036816765,570,522.6770036816765,570,510.53101104502974,570C498.3517417162277,570,498.3517417162277,570,486.17247238742567,570C474.0264797507788,570,474.0264797507788,570,461.88048711413194,570C449.7344944774851,570,449.7344944774851,570,437.5885018408383,570C425.4425092041914,570,425.4425092041914,570,413.2965165675446,570C401.11724723874255,570,401.11724723874255,570,388.9379779099405,570C376.7919852732937,570,376.7919852732937,570,364.64599263664684,570C352.5,570,352.5,570,340.35400736335316,570C328.2066281978665,570,328.2066281978665,570,316.05924903237985,570C303.8799797035779,570,303.8799797035779,570,291.70071037477584,570C279.55610426696876,570,279.55610426696876,570,267.4114981591617,570C255.26550552251484,570,255.26550552251484,570,243.119512885868,570C230.97352024922117,570,230.97352024922117,570,218.82752761257433,570C206.6482582837723,570,206.6482582837723,570,194.46898895497026,570C182.32299631832342,570,182.32299631832342,570,170.17700368167658,570C158.03101104502974,570,158.03101104502974,570,145.8850184083829,570C133.73902577173607,570,133.73902577173607,570,121.59303313508921,570C109.41376380628716,570,109.41376380628716,570,97.23449447748513,570C85.08850184083829,570,85.08850184083829,570,72.94250920419145,570C60.796516567544614,570,60.796516567544614,570,48.65052393089777,570C36.504531294250924,570,36.504531294250924,569.99999926375,24.35853865760408,569.99999926375C12.17926932880204,569.99999926375,12.17926932880204,569.9999990975,0,569.9999990975Z"><title>Estados Unidos</title></path><path fill="#bcbd22" d="M0,569.9999990975C12.17926932880204,569.9999990975,12.17926932880204,569.99999926375,24.35853865760408,569.99999926375C36.504531294250924,569.99999926375,36.504531294250924,569.9783891625,48.65052393089777,569.9783891625C60.796516567544614,569.9783891625,60.796516567544614,564.69568162625,72.94250920419145,564.69568162625C85.08850184083829,564.69568162625,85.08850184083829,533.5246065262501,97.23449447748513,533.5246065262501C109.41376380628716,533.5246065262501,109.41376380628716,513.59633497375,121.59303313508921,513.59633497375C133.73902577173607,513.59633497375,133.73902577173607,513.0419687675001,145.8850184083829,513.0419687675001C158.03101104502974,513.0419687675001,158.03101104502974,564.021901655,170.17700368167658,564.021901655C182.32299631832342,564.021901655,182.32299631832342,519.8368768512499,194.46898895497026,519.8368768512499C206.6482582837723,519.8368768512499,206.6482582837723,475.64617620125006,218.82752761257433,475.64617620125006C230.97352024922117,475.64617620125006,230.97352024922117,484.59412749625,243.119512885868,484.59412749625C255.26550552251484,484.59412749625,255.26550552251484,450.73161936625,267.4114981591617,450.73161936625C279.55610426696876,450.73161936625,279.55610426696876,478.668054975,291.70071037477584,478.668054975C303.8799797035779,478.668054975,303.8799797035779,436.07667010999995,316.05924903237985,436.07667010999995C328.2066281978665,436.07667010999995,328.2066281978665,465.0747037625,340.35400736335316,465.0747037625C352.5,465.0747037625,352.5,453.52698572124996,364.64599263664684,453.52698572124996C376.7919852732937,453.52698572124996,376.7919852732937,452.43684623375,388.9379779099405,452.43684623375C401.11724723874255,452.43684623375,401.11724723874255,478.22567237,413.2965165675446,478.22567237C425.4425092041914,478.22567237,425.4425092041914,485.75526566124995,437.5885018408383,485.75526566124995C449.7344944774851,485.75526566124995,449.7344944774851,547.72976738125,461.88048711413194,547.72976738125C474.0264797507788,547.72976738125,474.0264797507788,429.31165415625,486.17247238742567,429.31165415625C498.3517417162277,429.31165415625,498.3517417162277,394.80450998875,510.53101104502974,394.80450998875C522.6770036816765,394.80450998875,522.6770036816765,439.9549218475,534.8229963183234,439.9549218475C546.9689889549702,439.9549218475,546.9689889549702,356.31724149875004,559.1149815916172,356.31724149875004C571.260974228264,356.31724149875004,571.260974228264,507.22853434999996,583.4069668649108,507.22853434999996C595.5862361937128,507.22853434999996,595.5862361937128,433.788097595,607.7655055225148,433.788097595C619.9114981591617,433.788097595,619.9114981591617,434.13914969374997,632.0574907958086,434.13914969374997C644.2034834324554,434.13914969374997,644.2034834324554,324.2847212425,656.3494760691023,324.2847212425C668.4954687057491,324.2847212425,668.4954687057491,149.488199715,680.6414613423959,149.488199715C692.8207306711979,149.488199715,692.8207306711979,276.694343515,705,276.694343515L705,362.0729023075C692.8207306711979,362.0729023075,692.8207306711979,339.90335140124995,680.6414613423959,339.90335140124995C668.4954687057491,339.90335140124995,668.4954687057491,423.69821381,656.3494760691023,423.69821381C644.2034834324554,423.69821381,644.2034834324554,475.47464258625,632.0574907958086,475.47464258625C619.9114981591617,475.47464258625,619.9114981591617,475.4986521975,607.7655055225148,475.4986521975C595.5862361937128,475.4986521975,595.5862361937128,557.7719898325,583.4069668649108,557.7719898325C571.260974228264,557.7719898325,571.260974228264,429.2099447575,559.1149815916172,429.2099447575C546.9689889549702,429.2099447575,546.9689889549702,440.44873997,534.8229963183234,440.44873997C522.6770036816765,440.44873997,522.6770036816765,402.06865891125,510.53101104502974,402.06865891125C498.3517417162277,402.06865891125,498.3517417162277,445.971341435,486.17247238742567,445.971341435C474.0264797507788,445.971341435,474.0264797507788,563.83901399625,461.88048711413194,563.83901399625C449.7344944774851,563.83901399625,449.7344944774851,487.453586195,437.5885018408383,487.453586195C425.4425092041914,487.453586195,425.4425092041914,488.10904166374996,413.2965165675446,488.10904166374996C401.11724723874255,488.10904166374996,401.11724723874255,462.09904502999996,388.9379779099405,462.09904502999996C376.7919852732937,462.09904502999996,376.7919852732937,460.43333479,364.64599263664684,460.43333479C352.5,460.43333479,352.5,468.709095915,340.35400736335316,468.709095915C328.2066281978665,468.709095915,328.2066281978665,445.04333897,316.05924903237985,445.04333897C303.8799797035779,445.04333897,303.8799797035779,488.26787945499996,291.70071037477584,488.26787945499996C279.55610426696876,488.26787945499996,279.55610426696876,454.59402180250004,267.4114981591617,454.59402180250004C255.26550552251484,454.59402180250004,255.26550552251484,488.96325527749997,243.119512885868,488.96325527749997C230.97352024922117,488.96325527749997,230.97352024922117,480.59932270499996,218.82752761257433,480.59932270499996C206.6482582837723,480.59932270499996,206.6482582837723,521.38773280375,194.46898895497026,521.38773280375C182.32299631832342,521.38773280375,182.32299631832342,565.1530794325,170.17700368167658,565.1530794325C158.03101104502974,565.1530794325,158.03101104502974,513.5305362400001,145.8850184083829,513.5305362400001C133.73902577173607,513.5305362400001,133.73902577173607,513.61544735875,121.59303313508921,513.61544735875C109.41376380628716,513.61544735875,109.41376380628716,534.2376542962501,97.23449447748513,534.2376542962501C85.08850184083829,534.2376542962501,85.08850184083829,564.69622255625,72.94250920419145,564.69622255625C60.796516567544614,564.69622255625,60.796516567544614,569.9783899225,48.65052393089777,569.9783899225C36.504531294250924,569.9783899225,36.504531294250924,569.99999926375,24.35853865760408,569.99999926375C12.17926932880204,569.99999926375,12.17926932880204,569.9999990975,0,569.9999990975Z"><title>Resto</title></path><path fill="#7f7f7f" d="M0,569.9999990975C12.17926932880204,569.9999990975,12.17926932880204,569.99999926375,24.35853865760408,569.99999926375C36.504531294250924,569.99999926375,36.504531294250924,569.9783891625,48.65052393089777,569.9783891625C60.796516567544614,569.9783891625,60.796516567544614,564.69568162625,72.94250920419145,564.69568162625C85.08850184083829,564.69568162625,85.08850184083829,533.5217288812499,97.23449447748513,533.5217288812499C109.41376380628716,533.5217288812499,109.41376380628716,513.50185229625,121.59303313508921,513.50185229625C133.73902577173607,513.50185229625,133.73902577173607,513.0342950475,145.8850184083829,513.0342950475C158.03101104502974,513.0342950475,158.03101104502974,564.021901655,170.17700368167658,564.021901655C182.32299631832342,564.021901655,182.32299631832342,518.4738647312499,194.46898895497026,518.4738647312499C206.6482582837723,518.4738647312499,206.6482582837723,468.25409728625,218.82752761257433,468.25409728625C230.97352024922117,468.25409728625,230.97352024922117,484.58575001625,243.119512885868,484.58575001625C255.26550552251484,484.58575001625,255.26550552251484,449.85932998375,267.4114981591617,449.85932998375C279.55610426696876,449.85932998375,279.55610426696876,477.337601065,291.70071037477584,477.337601065C303.8799797035779,477.337601065,303.8799797035779,412.542011265,316.05924903237985,412.542011265C328.2066281978665,412.542011265,328.2066281978665,464.4491257225,340.35400736335316,464.4491257225C352.5,464.4491257225,352.5,453.52698572124996,364.64599263664684,453.52698572124996C376.7919852732937,453.52698572124996,376.7919852732937,452.43684623375,388.9379779099405,452.43684623375C401.11724723874255,452.43684623375,401.11724723874255,478.22567237,413.2965165675446,478.22567237C425.4425092041914,478.22567237,425.4425092041914,485.75526566124995,437.5885018408383,485.75526566124995C449.7344944774851,485.75526566124995,449.7344944774851,547.72976738125,461.88048711413194,547.72976738125C474.0264797507788,547.72976738125,474.0264797507788,429.31165415625,486.17247238742567,429.31165415625C498.3517417162277,429.31165415625,498.3517417162277,394.80450998875,510.53101104502974,394.80450998875C522.6770036816765,394.80450998875,522.6770036816765,439.9549218475,534.8229963183234,439.9549218475C546.9689889549702,439.9549218475,546.9689889549702,356.31724149875004,559.1149815916172,356.31724149875004C571.260974228264,356.31724149875004,571.260974228264,507.22853434999996,583.4069668649108,507.22853434999996C595.5862361937128,507.22853434999996,595.5862361937128,433.788097595,607.7655055225148,433.788097595C619.9114981591617,433.788097595,619.9114981591617,434.13914969374997,632.0574907958086,434.13914969374997C644.2034834324554,434.13914969374997,644.2034834324554,324.2847212425,656.3494760691023,324.2847212425C668.4954687057491,324.2847212425,668.4954687057491,149.488199715,680.6414613423959,149.488199715C692.8207306711979,149.488199715,692.8207306711979,276.694343515,705,276.694343515L705,276.694343515C692.8207306711979,276.694343515,692.8207306711979,149.488199715,680.6414613423959,149.488199715C668.4954687057491,149.488199715,668.4954687057491,324.2847212425,656.3494760691023,324.2847212425C644.2034834324554,324.2847212425,644.2034834324554,434.13914969374997,632.0574907958086,434.13914969374997C619.9114981591617,434.13914969374997,619.9114981591617,433.788097595,607.7655055225148,433.788097595C595.5862361937128,433.788097595,595.5862361937128,507.22853434999996,583.4069668649108,507.22853434999996C571.260974228264,507.22853434999996,571.260974228264,356.31724149875004,559.1149815916172,356.31724149875004C546.9689889549702,356.31724149875004,546.9689889549702,439.9549218475,534.8229963183234,439.9549218475C522.6770036816765,439.9549218475,522.6770036816765,394.80450998875,510.53101104502974,394.80450998875C498.3517417162277,394.80450998875,498.3517417162277,429.31165415625,486.17247238742567,429.31165415625C474.0264797507788,429.31165415625,474.0264797507788,547.72976738125,461.88048711413194,547.72976738125C449.7344944774851,547.72976738125,449.7344944774851,485.75526566124995,437.5885018408383,485.75526566124995C425.4425092041914,485.75526566124995,425.4425092041914,478.22567237,413.2965165675446,478.22567237C401.11724723874255,478.22567237,401.11724723874255,452.43684623375,388.9379779099405,452.43684623375C376.7919852732937,452.43684623375,376.7919852732937,453.52698572124996,364.64599263664684,453.52698572124996C352.5,453.52698572124996,352.5,465.0747037625,340.35400736335316,465.0747037625C328.2066281978665,465.0747037625,328.2066281978665,436.07667010999995,316.05924903237985,436.07667010999995C303.8799797035779,436.07667010999995,303.8799797035779,478.668054975,291.70071037477584,478.668054975C279.55610426696876,478.668054975,279.55610426696876,450.73161936625,267.4114981591617,450.73161936625C255.26550552251484,450.73161936625,255.26550552251484,484.59412749625,243.119512885868,484.59412749625C230.97352024922117,484.59412749625,230.97352024922117,475.64617620125006,218.82752761257433,475.64617620125006C206.6482582837723,475.64617620125006,206.6482582837723,519.8368768512499,194.46898895497026,519.8368768512499C182.32299631832342,519.8368768512499,182.32299631832342,564.021901655,170.17700368167658,564.021901655C158.03101104502974,564.021901655,158.03101104502974,513.0419687675001,145.8850184083829,513.0419687675001C133.73902577173607,513.0419687675001,133.73902577173607,513.59633497375,121.59303313508921,513.59633497375C109.41376380628716,513.59633497375,109.41376380628716,533.5246065262501,97.23449447748513,533.5246065262501C85.08850184083829,533.5246065262501,85.08850184083829,564.69568162625,72.94250920419145,564.69568162625C60.796516567544614,564.69568162625,60.796516567544614,569.9783891625,48.65052393089777,569.9783891625C36.504531294250924,569.9783891625,36.504531294250924,569.99999926375,24.35853865760408,569.99999926375C12.17926932880204,569.99999926375,12.17926932880204,569.9999990975,0,569.9999990975Z"><title>Reino Unido</title></path><path fill="#2ca02c" d="M0,569.9999990975C12.17926932880204,569.9999990975,12.17926932880204,569.99999926375,24.35853865760408,569.99999926375C36.504531294250924,569.99999926375,36.504531294250924,569.9783891625,48.65052393089777,569.9783891625C60.796516567544614,569.9783891625,60.796516567544614,564.69568162625,72.94250920419145,564.69568162625C85.08850184083829,564.69568162625,85.08850184083829,533.5217288812499,97.23449447748513,533.5217288812499C109.41376380628716,533.5217288812499,109.41376380628716,513.50185229625,121.59303313508921,513.50185229625C133.73902577173607,513.50185229625,133.73902577173607,513.0342950475,145.8850184083829,513.0342950475C158.03101104502974,513.0342950475,158.03101104502974,564.021901655,170.17700368167658,564.021901655C182.32299631832342,564.021901655,182.32299631832342,518.4738647312499,194.46898895497026,518.4738647312499C206.6482582837723,518.4738647312499,206.6482582837723,468.25409728625,218.82752761257433,468.25409728625C230.97352024922117,468.25409728625,230.97352024922117,449.37029677374994,243.119512885868,449.37029677374994C255.26550552251484,449.37029677374994,255.26550552251484,428.74805772625,267.4114981591617,428.74805772625C279.55610426696876,428.74805772625,279.55610426696876,451.499193455,291.70071037477584,451.499193455C303.8799797035779,451.499193455,303.8799797035779,408.45522498,316.05924903237985,408.45522498C328.2066281978665,408.45522498,328.2066281978665,442.06743644375,340.35400736335316,442.06743644375C352.5,442.06743644375,352.5,422.25416996750005,364.64599263664684,422.25416996750005C376.7919852732937,422.25416996750005,376.7919852732937,452.43684623375,388.9379779099405,452.43684623375C401.11724723874255,452.43684623375,401.11724723874255,449.96536041,413.2965165675446,449.96536041C425.4425092041914,449.96536041,425.4425092041914,440.2289107775,437.5885018408383,440.2289107775C449.7344944774851,440.2289107775,449.7344944774851,448.67675929625,461.88048711413194,448.67675929625C474.0264797507788,448.67675929625,474.0264797507788,428.71195791625,486.17247238742567,428.71195791625C498.3517417162277,428.71195791625,498.3517417162277,326.01761647999996,510.53101104502974,326.01761647999996C522.6770036816765,326.01761647999996,522.6770036816765,333.94996260375,534.8229963183234,333.94996260375C546.9689889549702,333.94996260375,546.9689889549702,331.45239491,559.1149815916172,331.45239491C571.260974228264,331.45239491,571.260974228264,384.1710910425,583.4069668649108,384.1710910425C595.5862361937128,384.1710910425,595.5862361937128,305.55648477375,607.7655055225148,305.55648477375C619.9114981591617,305.55648477375,619.9114981591617,225.04561654124998,632.0574907958086,225.04561654124998C644.2034834324554,225.04561654124998,644.2034834324554,255.83188162499997,656.3494760691023,255.83188162499997C668.4954687057491,255.83188162499997,668.4954687057491,62.89183734749999,680.6414613423959,62.89183734749999C692.8207306711979,62.89183734749999,692.8207306711979,174.01916084749996,705,174.01916084749996L705,276.694343515C692.8207306711979,276.694343515,692.8207306711979,149.488199715,680.6414613423959,149.488199715C668.4954687057491,149.488199715,668.4954687057491,324.2847212425,656.3494760691023,324.2847212425C644.2034834324554,324.2847212425,644.2034834324554,434.13914969374997,632.0574907958086,434.13914969374997C619.9114981591617,434.13914969374997,619.9114981591617,433.788097595,607.7655055225148,433.788097595C595.5862361937128,433.788097595,595.5862361937128,507.22853434999996,583.4069668649108,507.22853434999996C571.260974228264,507.22853434999996,571.260974228264,356.31724149875004,559.1149815916172,356.31724149875004C546.9689889549702,356.31724149875004,546.9689889549702,439.9549218475,534.8229963183234,439.9549218475C522.6770036816765,439.9549218475,522.6770036816765,394.80450998875,510.53101104502974,394.80450998875C498.3517417162277,394.80450998875,498.3517417162277,429.31165415625,486.17247238742567,429.31165415625C474.0264797507788,429.31165415625,474.0264797507788,547.72976738125,461.88048711413194,547.72976738125C449.7344944774851,547.72976738125,449.7344944774851,485.75526566124995,437.5885018408383,485.75526566124995C425.4425092041914,485.75526566124995,425.4425092041914,478.22567237,413.2965165675446,478.22567237C401.11724723874255,478.22567237,401.11724723874255,452.43684623375,388.9379779099405,452.43684623375C376.7919852732937,452.43684623375,376.7919852732937,453.52698572124996,364.64599263664684,453.52698572124996C352.5,453.52698572124996,352.5,464.4491257225,340.35400736335316,464.4491257225C328.2066281978665,464.4491257225,328.2066281978665,412.542011265,316.05924903237985,412.542011265C303.8799797035779,412.542011265,303.8799797035779,477.337601065,291.70071037477584,477.337601065C279.55610426696876,477.337601065,279.55610426696876,449.85932998375,267.4114981591617,449.85932998375C255.26550552251484,449.85932998375,255.26550552251484,484.58575001625,243.119512885868,484.58575001625C230.97352024922117,484.58575001625,230.97352024922117,468.25409728625,218.82752761257433,468.25409728625C206.6482582837723,468.25409728625,206.6482582837723,518.4738647312499,194.46898895497026,518.4738647312499C182.32299631832342,518.4738647312499,182.32299631832342,564.021901655,170.17700368167658,564.021901655C158.03101104502974,564.021901655,158.03101104502974,513.0342950475,145.8850184083829,513.0342950475C133.73902577173607,513.0342950475,133.73902577173607,513.50185229625,121.59303313508921,513.50185229625C109.41376380628716,513.50185229625,109.41376380628716,533.5217288812499,97.23449447748513,533.5217288812499C85.08850184083829,533.5217288812499,85.08850184083829,564.69568162625,72.94250920419145,564.69568162625C60.796516567544614,564.69568162625,60.796516567544614,569.9783891625,48.65052393089777,569.9783891625C36.504531294250924,569.9783891625,36.504531294250924,569.99999926375,24.35853865760408,569.99999926375C12.17926932880204,569.99999926375,12.17926932880204,569.9999990975,0,569.9999990975Z"><title>China</title></path><path fill="#8c564b" d="M0,569.9999990975C12.17926932880204,569.9999990975,12.17926932880204,569.99999926375,24.35853865760408,569.99999926375C36.504531294250924,569.99999926375,36.504531294250924,569.9783891625,48.65052393089777,569.9783891625C60.796516567544614,569.9783891625,60.796516567544614,564.69568162625,72.94250920419145,564.69568162625C85.08850184083829,564.69568162625,85.08850184083829,533.5217288812499,97.23449447748513,533.5217288812499C109.41376380628716,533.5217288812499,109.41376380628716,513.50185229625,121.59303313508921,513.50185229625C133.73902577173607,513.50185229625,133.73902577173607,513.0342950475,145.8850184083829,513.0342950475C158.03101104502974,513.0342950475,158.03101104502974,564.021901655,170.17700368167658,564.021901655C182.32299631832342,564.021901655,182.32299631832342,518.4738647312499,194.46898895497026,518.4738647312499C206.6482582837723,518.4738647312499,206.6482582837723,468.25409728625,218.82752761257433,468.25409728625C230.97352024922117,468.25409728625,230.97352024922117,449.37029677374994,243.119512885868,449.37029677374994C255.26550552251484,449.37029677374994,255.26550552251484,428.74805772625,267.4114981591617,428.74805772625C279.55610426696876,428.74805772625,279.55610426696876,440.64740760375,291.70071037477584,440.64740760375C303.8799797035779,440.64740760375,303.8799797035779,408.45522498,316.05924903237985,408.45522498C328.2066281978665,408.45522498,328.2066281978665,442.06743644375,340.35400736335316,442.06743644375C352.5,442.06743644375,352.5,401.36425761375,364.64599263664684,401.36425761375C376.7919852732937,401.36425761375,376.7919852732937,439.8446334975,388.9379779099405,439.8446334975C401.11724723874255,439.8446334975,401.11724723874255,431.20974750625,413.2965165675446,431.20974750625C425.4425092041914,431.20974750625,425.4425092041914,440.2289107775,437.5885018408383,440.2289107775C449.7344944774851,440.2289107775,449.7344944774851,434.39227633875,461.88048711413194,434.39227633875C474.0264797507788,434.39227633875,474.0264797507788,413.40170635500004,486.17247238742567,413.40170635500004C498.3517417162277,413.40170635500004,498.3517417162277,166.828831675,510.53101104502974,166.828831675C522.6770036816765,166.828831675,522.6770036816765,133.33187549375003,534.8229963183234,133.33187549375003C546.9689889549702,133.33187549375003,546.9689889549702,234.5238561025,559.1149815916172,234.5238561025C571.260974228264,234.5238561025,571.260974228264,259.1612226025,583.4069668649108,259.1612226025C595.5862361937128,259.1612226025,595.5862361937128,287.759746675,607.7655055225148,287.759746675C619.9114981591617,287.759746675,619.9114981591617,143.53940248124997,632.0574907958086,143.53940248124997C644.2034834324554,143.53940248124997,644.2034834324554,205.0188720975,656.3494760691023,205.0188720975C668.4954687057491,205.0188720975,668.4954687057491,12.102761882499975,680.6414613423959,12.102761882499975C692.8207306711979,12.102761882499975,692.8207306711979,111.78954185249998,705,111.78954185249998L705,174.01916084749996C692.8207306711979,174.01916084749996,692.8207306711979,62.89183734749999,680.6414613423959,62.89183734749999C668.4954687057491,62.89183734749999,668.4954687057491,255.83188162499997,656.3494760691023,255.83188162499997C644.2034834324554,255.83188162499997,644.2034834324554,225.04561654124998,632.0574907958086,225.04561654124998C619.9114981591617,225.04561654124998,619.9114981591617,305.55648477375,607.7655055225148,305.55648477375C595.5862361937128,305.55648477375,595.5862361937128,384.1710910425,583.4069668649108,384.1710910425C571.260974228264,384.1710910425,571.260974228264,331.45239491,559.1149815916172,331.45239491C546.9689889549702,331.45239491,546.9689889549702,333.94996260375,534.8229963183234,333.94996260375C522.6770036816765,333.94996260375,522.6770036816765,326.01761647999996,510.53101104502974,326.01761647999996C498.3517417162277,326.01761647999996,498.3517417162277,428.71195791625,486.17247238742567,428.71195791625C474.0264797507788,428.71195791625,474.0264797507788,448.67675929625,461.88048711413194,448.67675929625C449.7344944774851,448.67675929625,449.7344944774851,440.2289107775,437.5885018408383,440.2289107775C425.4425092041914,440.2289107775,425.4425092041914,449.96536041,413.2965165675446,449.96536041C401.11724723874255,449.96536041,401.11724723874255,452.43684623375,388.9379779099405,452.43684623375C376.7919852732937,452.43684623375,376.7919852732937,422.25416996750005,364.64599263664684,422.25416996750005C352.5,422.25416996750005,352.5,442.06743644375,340.35400736335316,442.06743644375C328.2066281978665,442.06743644375,328.2066281978665,408.45522498,316.05924903237985,408.45522498C303.8799797035779,408.45522498,303.8799797035779,451.499193455,291.70071037477584,451.499193455C279.55610426696876,451.499193455,279.55610426696876,428.74805772625,267.4114981591617,428.74805772625C255.26550552251484,428.74805772625,255.26550552251484,449.37029677374994,243.119512885868,449.37029677374994C230.97352024922117,449.37029677374994,230.97352024922117,468.25409728625,218.82752761257433,468.25409728625C206.6482582837723,468.25409728625,206.6482582837723,518.4738647312499,194.46898895497026,518.4738647312499C182.32299631832342,518.4738647312499,182.32299631832342,564.021901655,170.17700368167658,564.021901655C158.03101104502974,564.021901655,158.03101104502974,513.0342950475,145.8850184083829,513.0342950475C133.73902577173607,513.0342950475,133.73902577173607,513.50185229625,121.59303313508921,513.50185229625C109.41376380628716,513.50185229625,109.41376380628716,533.5217288812499,97.23449447748513,533.5217288812499C85.08850184083829,533.5217288812499,85.08850184083829,564.69568162625,72.94250920419145,564.69568162625C60.796516567544614,564.69568162625,60.796516567544614,569.9783891625,48.65052393089777,569.9783891625C36.504531294250924,569.9783891625,36.504531294250924,569.99999926375,24.35853865760408,569.99999926375C12.17926932880204,569.99999926375,12.17926932880204,569.9999990975,0,569.9999990975Z"><title>Japon</title></path><path fill="#ff7f0e" d="M0,569.9999990975C12.17926932880204,569.9999990975,12.17926932880204,569.99999926375,24.35853865760408,569.99999926375C36.504531294250924,569.99999926375,36.504531294250924,569.9783891625,48.65052393089777,569.9783891625C60.796516567544614,569.9783891625,60.796516567544614,564.69568162625,72.94250920419145,564.69568162625C85.08850184083829,564.69568162625,85.08850184083829,533.5217288812499,97.23449447748513,533.5217288812499C109.41376380628716,533.5217288812499,109.41376380628716,513.50185229625,121.59303313508921,513.50185229625C133.73902577173607,513.50185229625,133.73902577173607,513.0342950475,145.8850184083829,513.0342950475C158.03101104502974,513.0342950475,158.03101104502974,564.021901655,170.17700368167658,564.021901655C182.32299631832342,564.021901655,182.32299631832342,518.4738647312499,194.46898895497026,518.4738647312499C206.6482582837723,518.4738647312499,206.6482582837723,468.25409728625,218.82752761257433,468.25409728625C230.97352024922117,468.25409728625,230.97352024922117,449.37029677374994,243.119512885868,449.37029677374994C255.26550552251484,449.37029677374994,255.26550552251484,428.74805772625,267.4114981591617,428.74805772625C279.55610426696876,428.74805772625,279.55610426696876,440.64740760375,291.70071037477584,440.64740760375C303.8799797035779,440.64740760375,303.8799797035779,408.45522498,316.05924903237985,408.45522498C328.2066281978665,408.45522498,328.2066281978665,442.06743644375,340.35400736335316,442.06743644375C352.5,442.06743644375,352.5,401.36425761375,364.64599263664684,401.36425761375C376.7919852732937,401.36425761375,376.7919852732937,439.8446334975,388.9379779099405,439.8446334975C401.11724723874255,439.8446334975,401.11724723874255,431.20974750625,413.2965165675446,431.20974750625C425.4425092041914,431.20974750625,425.4425092041914,440.2289107775,437.5885018408383,440.2289107775C449.7344944774851,440.2289107775,449.7344944774851,434.39227633875,461.88048711413194,434.39227633875C474.0264797507788,434.39227633875,474.0264797507788,413.40170635500004,486.17247238742567,413.40170635500004C498.3517417162277,413.40170635500004,498.3517417162277,141.70873849249998,510.53101104502974,141.70873849249998C522.6770036816765,141.70873849249998,522.6770036816765,100.95558545874997,534.8229963183234,100.95558545874997C546.9689889549702,100.95558545874997,546.9689889549702,234.5238561025,559.1149815916172,234.5238561025C571.260974228264,234.5238561025,571.260974228264,236.84615520875,583.4069668649108,236.84615520875C595.5862361937128,236.84615520875,595.5862361937128,287.759746675,607.7655055225148,287.759746675C619.9114981591617,287.759746675,619.9114981591617,143.53940248124997,632.0574907958086,143.53940248124997C644.2034834324554,143.53940248124997,644.2034834324554,205.0188720975,656.3494760691023,205.0188720975C668.4954687057491,205.0188720975,668.4954687057491,12.102761882499975,680.6414613423959,12.102761882499975C692.8207306711979,12.102761882499975,692.8207306711979,111.78954185249998,705,111.78954185249998L705,111.78954185249998C692.8207306711979,111.78954185249998,692.8207306711979,12.102761882499975,680.6414613423959,12.102761882499975C668.4954687057491,12.102761882499975,668.4954687057491,205.0188720975,656.3494760691023,205.0188720975C644.2034834324554,205.0188720975,644.2034834324554,143.53940248124997,632.0574907958086,143.53940248124997C619.9114981591617,143.53940248124997,619.9114981591617,287.759746675,607.7655055225148,287.759746675C595.5862361937128,287.759746675,595.5862361937128,259.1612226025,583.4069668649108,259.1612226025C571.260974228264,259.1612226025,571.260974228264,234.5238561025,559.1149815916172,234.5238561025C546.9689889549702,234.5238561025,546.9689889549702,133.33187549375003,534.8229963183234,133.33187549375003C522.6770036816765,133.33187549375003,522.6770036816765,166.828831675,510.53101104502974,166.828831675C498.3517417162277,166.828831675,498.3517417162277,413.40170635500004,486.17247238742567,413.40170635500004C474.0264797507788,413.40170635500004,474.0264797507788,434.39227633875,461.88048711413194,434.39227633875C449.7344944774851,434.39227633875,449.7344944774851,440.2289107775,437.5885018408383,440.2289107775C425.4425092041914,440.2289107775,425.4425092041914,431.20974750625,413.2965165675446,431.20974750625C401.11724723874255,431.20974750625,401.11724723874255,439.8446334975,388.9379779099405,439.8446334975C376.7919852732937,439.8446334975,376.7919852732937,401.36425761375,364.64599263664684,401.36425761375C352.5,401.36425761375,352.5,442.06743644375,340.35400736335316,442.06743644375C328.2066281978665,442.06743644375,328.2066281978665,408.45522498,316.05924903237985,408.45522498C303.8799797035779,408.45522498,303.8799797035779,440.64740760375,291.70071037477584,440.64740760375C279.55610426696876,440.64740760375,279.55610426696876,428.74805772625,267.4114981591617,428.74805772625C255.26550552251484,428.74805772625,255.26550552251484,449.37029677374994,243.119512885868,449.37029677374994C230.97352024922117,449.37029677374994,230.97352024922117,468.25409728625,218.82752761257433,468.25409728625C206.6482582837723,468.25409728625,206.6482582837723,518.4738647312499,194.46898895497026,518.4738647312499C182.32299631832342,518.4738647312499,182.32299631832342,564.021901655,170.17700368167658,564.021901655C158.03101104502974,564.021901655,158.03101104502974,513.0342950475,145.8850184083829,513.0342950475C133.73902577173607,513.0342950475,133.73902577173607,513.50185229625,121.59303313508921,513.50185229625C109.41376380628716,513.50185229625,109.41376380628716,533.5217288812499,97.23449447748513,533.5217288812499C85.08850184083829,533.5217288812499,85.08850184083829,564.69568162625,72.94250920419145,564.69568162625C60.796516567544614,564.69568162625,60.796516567544614,569.9783891625,48.65052393089777,569.9783891625C36.504531294250924,569.9783891625,36.504531294250924,569.99999926375,24.35853865760408,569.99999926375C12.17926932880204,569.99999926375,12.17926932880204,569.9999990975,0,569.9999990975Z"><title>Belgica</title></path><path fill="#d62728" d="M0,569.9999990975C12.17926932880204,569.9999990975,12.17926932880204,569.99999926375,24.35853865760408,569.99999926375C36.504531294250924,569.99999926375,36.504531294250924,569.9783891625,48.65052393089777,569.9783891625C60.796516567544614,569.9783891625,60.796516567544614,564.69568162625,72.94250920419145,564.69568162625C85.08850184083829,564.69568162625,85.08850184083829,533.5217288812499,97.23449447748513,533.5217288812499C109.41376380628716,533.5217288812499,109.41376380628716,513.50185229625,121.59303313508921,513.50185229625C133.73902577173607,513.50185229625,133.73902577173607,513.0342950475,145.8850184083829,513.0342950475C158.03101104502974,513.0342950475,158.03101104502974,564.021901655,170.17700368167658,564.021901655C182.32299631832342,564.021901655,182.32299631832342,518.4738647312499,194.46898895497026,518.4738647312499C206.6482582837723,518.4738647312499,206.6482582837723,468.25409728625,218.82752761257433,468.25409728625C230.97352024922117,468.25409728625,230.97352024922117,449.37029677374994,243.119512885868,449.37029677374994C255.26550552251484,449.37029677374994,255.26550552251484,428.74805772625,267.4114981591617,428.74805772625C279.55610426696876,428.74805772625,279.55610426696876,440.64740760375,291.70071037477584,440.64740760375C303.8799797035779,440.64740760375,303.8799797035779,408.45522498,316.05924903237985,408.45522498C328.2066281978665,408.45522498,328.2066281978665,442.06743644375,340.35400736335316,442.06743644375C352.5,442.06743644375,352.5,401.36425761375,364.64599263664684,401.36425761375C376.7919852732937,401.36425761375,376.7919852732937,439.8446334975,388.9379779099405,439.8446334975C401.11724723874255,439.8446334975,401.11724723874255,431.20974750625,413.2965165675446,431.20974750625C425.4425092041914,431.20974750625,425.4425092041914,440.2289107775,437.5885018408383,440.2289107775C449.7344944774851,440.2289107775,449.7344944774851,434.39227633875,461.88048711413194,434.39227633875C474.0264797507788,434.39227633875,474.0264797507788,413.40170635500004,486.17247238742567,413.40170635500004C498.3517417162277,413.40170635500004,498.3517417162277,114.16142435625002,510.53101104502974,114.16142435625002C522.6770036816765,114.16142435625002,522.6770036816765,42.781281291250004,534.8229963183234,42.781281291250004C546.9689889549702,42.781281291250004,546.9689889549702,141.67329109500002,559.1149815916172,141.67329109500002C571.260974228264,141.67329109500002,571.260974228264,236.84615520875,583.4069668649108,236.84615520875C595.5862361937128,236.84615520875,595.5862361937128,287.759746675,607.7655055225148,287.759746675C619.9114981591617,287.759746675,619.9114981591617,143.17287262625,632.0574907958086,143.17287262625C644.2034834324554,143.17287262625,644.2034834324554,202.89535073,656.3494760691023,202.89535073C668.4954687057491,202.89535073,668.4954687057491,9.876965605000027,680.6414613423959,9.876965605000027C692.8207306711979,9.876965605000027,692.8207306711979,110.28417610375001,705,110.28417610375001L705,111.78954185249998C692.8207306711979,111.78954185249998,692.8207306711979,12.102761882499975,680.6414613423959,12.102761882499975C668.4954687057491,12.102761882499975,668.4954687057491,205.0188720975,656.3494760691023,205.0188720975C644.2034834324554,205.0188720975,644.2034834324554,143.53940248124997,632.0574907958086,143.53940248124997C619.9114981591617,143.53940248124997,619.9114981591617,287.759746675,607.7655055225148,287.759746675C595.5862361937128,287.759746675,595.5862361937128,236.84615520875,583.4069668649108,236.84615520875C571.260974228264,236.84615520875,571.260974228264,234.5238561025,559.1149815916172,234.5238561025C546.9689889549702,234.5238561025,546.9689889549702,100.95558545874997,534.8229963183234,100.95558545874997C522.6770036816765,100.95558545874997,522.6770036816765,141.70873849249998,510.53101104502974,141.70873849249998C498.3517417162277,141.70873849249998,498.3517417162277,413.40170635500004,486.17247238742567,413.40170635500004C474.0264797507788,413.40170635500004,474.0264797507788,434.39227633875,461.88048711413194,434.39227633875C449.7344944774851,434.39227633875,449.7344944774851,440.2289107775,437.5885018408383,440.2289107775C425.4425092041914,440.2289107775,425.4425092041914,431.20974750625,413.2965165675446,431.20974750625C401.11724723874255,431.20974750625,401.11724723874255,439.8446334975,388.9379779099405,439.8446334975C376.7919852732937,439.8446334975,376.7919852732937,401.36425761375,364.64599263664684,401.36425761375C352.5,401.36425761375,352.5,442.06743644375,340.35400736335316,442.06743644375C328.2066281978665,442.06743644375,328.2066281978665,408.45522498,316.05924903237985,408.45522498C303.8799797035779,408.45522498,303.8799797035779,440.64740760375,291.70071037477584,440.64740760375C279.55610426696876,440.64740760375,279.55610426696876,428.74805772625,267.4114981591617,428.74805772625C255.26550552251484,428.74805772625,255.26550552251484,449.37029677374994,243.119512885868,449.37029677374994C230.97352024922117,449.37029677374994,230.97352024922117,468.25409728625,218.82752761257433,468.25409728625C206.6482582837723,468.25409728625,206.6482582837723,518.4738647312499,194.46898895497026,518.4738647312499C182.32299631832342,518.4738647312499,182.32299631832342,564.021901655,170.17700368167658,564.021901655C158.03101104502974,564.021901655,158.03101104502974,513.0342950475,145.8850184083829,513.0342950475C133.73902577173607,513.0342950475,133.73902577173607,513.50185229625,121.59303313508921,513.50185229625C109.41376380628716,513.50185229625,109.41376380628716,533.5217288812499,97.23449447748513,533.5217288812499C85.08850184083829,533.5217288812499,85.08850184083829,564.69568162625,72.94250920419145,564.69568162625C60.796516567544614,564.69568162625,60.796516567544614,569.9783891625,48.65052393089777,569.9783891625C36.504531294250924,569.9783891625,36.504531294250924,569.99999926375,24.35853865760408,569.99999926375C12.17926932880204,569.99999926375,12.17926932880204,569.9999990975,0,569.9999990975Z"><title>Corea</title></path><path fill="#17becf" d="M0,569.9999990975C12.17926932880204,569.9999990975,12.17926932880204,569.99999926375,24.35853865760408,569.99999926375C36.504531294250924,569.99999926375,36.504531294250924,569.9783891625,48.65052393089777,569.9783891625C60.796516567544614,569.9783891625,60.796516567544614,564.69568162625,72.94250920419145,564.69568162625C85.08850184083829,564.69568162625,85.08850184083829,533.5217288812499,97.23449447748513,533.5217288812499C109.41376380628716,533.5217288812499,109.41376380628716,513.50185229625,121.59303313508921,513.50185229625C133.73902577173607,513.50185229625,133.73902577173607,513.0342950475,145.8850184083829,513.0342950475C158.03101104502974,513.0342950475,158.03101104502974,564.021901655,170.17700368167658,564.021901655C182.32299631832342,564.021901655,182.32299631832342,518.4738647312499,194.46898895497026,518.4738647312499C206.6482582837723,518.4738647312499,206.6482582837723,468.25409728625,218.82752761257433,468.25409728625C230.97352024922117,468.25409728625,230.97352024922117,449.37029677374994,243.119512885868,449.37029677374994C255.26550552251484,449.37029677374994,255.26550552251484,428.74805772625,267.4114981591617,428.74805772625C279.55610426696876,428.74805772625,279.55610426696876,440.64740760375,291.70071037477584,440.64740760375C303.8799797035779,440.64740760375,303.8799797035779,408.45522498,316.05924903237985,408.45522498C328.2066281978665,408.45522498,328.2066281978665,442.06743644375,340.35400736335316,442.06743644375C352.5,442.06743644375,352.5,401.36425761375,364.64599263664684,401.36425761375C376.7919852732937,401.36425761375,376.7919852732937,439.8446334975,388.9379779099405,439.8446334975C401.11724723874255,439.8446334975,401.11724723874255,431.20974750625,413.2965165675446,431.20974750625C425.4425092041914,431.20974750625,425.4425092041914,440.2289107775,437.5885018408383,440.2289107775C449.7344944774851,440.2289107775,449.7344944774851,434.39227633875,461.88048711413194,434.39227633875C474.0264797507788,434.39227633875,474.0264797507788,413.40170635500004,486.17247238742567,413.40170635500004C498.3517417162277,413.40170635500004,498.3517417162277,114.16142435625002,510.53101104502974,114.16142435625002C522.6770036816765,114.16142435625002,522.6770036816765,42.781281291250004,534.8229963183234,42.781281291250004C546.9689889549702,42.781281291250004,546.9689889549702,141.67329109500002,559.1149815916172,141.67329109500002C571.260974228264,141.67329109500002,571.260974228264,236.82521426375,583.4069668649108,236.82521426375C595.5862361937128,236.82521426375,595.5862361937128,287.759746675,607.7655055225148,287.759746675C619.9114981591617,287.759746675,619.9114981591617,143.17287262625,632.0574907958086,143.17287262625C644.2034834324554,143.17287262625,644.2034834324554,202.89535073,656.3494760691023,202.89535073C668.4954687057491,202.89535073,668.4954687057491,9.876965605000027,680.6414613423959,9.876965605000027C692.8207306711979,9.876965605000027,692.8207306711979,110.28417610375001,705,110.28417610375001L705,110.28417610375001C692.8207306711979,110.28417610375001,692.8207306711979,9.876965605000027,680.6414613423959,9.876965605000027C668.4954687057491,9.876965605000027,668.4954687057491,202.89535073,656.3494760691023,202.89535073C644.2034834324554,202.89535073,644.2034834324554,143.17287262625,632.0574907958086,143.17287262625C619.9114981591617,143.17287262625,619.9114981591617,287.759746675,607.7655055225148,287.759746675C595.5862361937128,287.759746675,595.5862361937128,236.84615520875,583.4069668649108,236.84615520875C571.260974228264,236.84615520875,571.260974228264,141.67329109500002,559.1149815916172,141.67329109500002C546.9689889549702,141.67329109500002,546.9689889549702,42.781281291250004,534.8229963183234,42.781281291250004C522.6770036816765,42.781281291250004,522.6770036816765,114.16142435625002,510.53101104502974,114.16142435625002C498.3517417162277,114.16142435625002,498.3517417162277,413.40170635500004,486.17247238742567,413.40170635500004C474.0264797507788,413.40170635500004,474.0264797507788,434.39227633875,461.88048711413194,434.39227633875C449.7344944774851,434.39227633875,449.7344944774851,440.2289107775,437.5885018408383,440.2289107775C425.4425092041914,440.2289107775,425.4425092041914,431.20974750625,413.2965165675446,431.20974750625C401.11724723874255,431.20974750625,401.11724723874255,439.8446334975,388.9379779099405,439.8446334975C376.7919852732937,439.8446334975,376.7919852732937,401.36425761375,364.64599263664684,401.36425761375C352.5,401.36425761375,352.5,442.06743644375,340.35400736335316,442.06743644375C328.2066281978665,442.06743644375,328.2066281978665,408.45522498,316.05924903237985,408.45522498C303.8799797035779,408.45522498,303.8799797035779,440.64740760375,291.70071037477584,440.64740760375C279.55610426696876,440.64740760375,279.55610426696876,428.74805772625,267.4114981591617,428.74805772625C255.26550552251484,428.74805772625,255.26550552251484,449.37029677374994,243.119512885868,449.37029677374994C230.97352024922117,449.37029677374994,230.97352024922117,468.25409728625,218.82752761257433,468.25409728625C206.6482582837723,468.25409728625,206.6482582837723,518.4738647312499,194.46898895497026,518.4738647312499C182.32299631832342,518.4738647312499,182.32299631832342,564.021901655,170.17700368167658,564.021901655C158.03101104502974,564.021901655,158.03101104502974,513.0342950475,145.8850184083829,513.0342950475C133.73902577173607,513.0342950475,133.73902577173607,513.50185229625,121.59303313508921,513.50185229625C109.41376380628716,513.50185229625,109.41376380628716,533.5217288812499,97.23449447748513,533.5217288812499C85.08850184083829,533.5217288812499,85.08850184083829,564.69568162625,72.94250920419145,564.69568162625C60.796516567544614,564.69568162625,60.796516567544614,569.9783891625,48.65052393089777,569.9783891625C36.504531294250924,569.9783891625,36.504531294250924,569.99999926375,24.35853865760408,569.99999926375C12.17926932880204,569.99999926375,12.17926932880204,569.9999990975,0,569.9999990975Z"><title>Rusia</title></path><path fill="#1f77b4" d="M0,569.9999990975C12.17926932880204,569.9999990975,12.17926932880204,569.99999926375,24.35853865760408,569.99999926375C36.504531294250924,569.99999926375,36.504531294250924,569.9783891625,48.65052393089777,569.9783891625C60.796516567544614,569.9783891625,60.796516567544614,564.69568162625,72.94250920419145,564.69568162625C85.08850184083829,564.69568162625,85.08850184083829,533.5217288812499,97.23449447748513,533.5217288812499C109.41376380628716,533.5217288812499,109.41376380628716,513.50185229625,121.59303313508921,513.50185229625C133.73902577173607,513.50185229625,133.73902577173607,513.0342950475,145.8850184083829,513.0342950475C158.03101104502974,513.0342950475,158.03101104502974,564.021901655,170.17700368167658,564.021901655C182.32299631832342,564.021901655,182.32299631832342,518.4738647312499,194.46898895497026,518.4738647312499C206.6482582837723,518.4738647312499,206.6482582837723,468.25409728625,218.82752761257433,468.25409728625C230.97352024922117,468.25409728625,230.97352024922117,449.37029677374994,243.119512885868,449.37029677374994C255.26550552251484,449.37029677374994,255.26550552251484,428.74805772625,267.4114981591617,428.74805772625C279.55610426696876,428.74805772625,279.55610426696876,440.64740760375,291.70071037477584,440.64740760375C303.8799797035779,440.64740760375,303.8799797035779,408.45522498,316.05924903237985,408.45522498C328.2066281978665,408.45522498,328.2066281978665,442.06743644375,340.35400736335316,442.06743644375C352.5,442.06743644375,352.5,401.36425761375,364.64599263664684,401.36425761375C376.7919852732937,401.36425761375,376.7919852732937,439.8446334975,388.9379779099405,439.8446334975C401.11724723874255,439.8446334975,401.11724723874255,431.20974750625,413.2965165675446,431.20974750625C425.4425092041914,431.20974750625,425.4425092041914,440.2289107775,437.5885018408383,440.2289107775C449.7344944774851,440.2289107775,449.7344944774851,434.39227633875,461.88048711413194,434.39227633875C474.0264797507788,434.39227633875,474.0264797507788,413.40170635500004,486.17247238742567,413.40170635500004C498.3517417162277,413.40170635500004,498.3517417162277,114.16142435625002,510.53101104502974,114.16142435625002C522.6770036816765,114.16142435625002,522.6770036816765,42.781281291250004,534.8229963183234,42.781281291250004C546.9689889549702,42.781281291250004,546.9689889549702,141.67329109500002,559.1149815916172,141.67329109500002C571.260974228264,141.67329109500002,571.260974228264,236.82521426375,583.4069668649108,236.82521426375C595.5862361937128,236.82521426375,595.5862361937128,263.92928158,607.7655055225148,263.92928158C619.9114981591617,263.92928158,619.9114981591617,111.89228323625001,632.0574907958086,111.89228323625001C644.2034834324554,111.89228323625001,644.2034834324554,202.89535073,656.3494760691023,202.89535073C668.4954687057491,202.89535073,668.4954687057491,9.876965605000027,680.6414613423959,9.876965605000027C692.8207306711979,9.876965605000027,692.8207306711979,110.28417610375001,705,110.28417610375001L705,110.28417610375001C692.8207306711979,110.28417610375001,692.8207306711979,9.876965605000027,680.6414613423959,9.876965605000027C668.4954687057491,9.876965605000027,668.4954687057491,202.89535073,656.3494760691023,202.89535073C644.2034834324554,202.89535073,644.2034834324554,143.17287262625,632.0574907958086,143.17287262625C619.9114981591617,143.17287262625,619.9114981591617,287.759746675,607.7655055225148,287.759746675C595.5862361937128,287.759746675,595.5862361937128,236.82521426375,583.4069668649108,236.82521426375C571.260974228264,236.82521426375,571.260974228264,141.67329109500002,559.1149815916172,141.67329109500002C546.9689889549702,141.67329109500002,546.9689889549702,42.781281291250004,534.8229963183234,42.781281291250004C522.6770036816765,42.781281291250004,522.6770036816765,114.16142435625002,510.53101104502974,114.16142435625002C498.3517417162277,114.16142435625002,498.3517417162277,413.40170635500004,486.17247238742567,413.40170635500004C474.0264797507788,413.40170635500004,474.0264797507788,434.39227633875,461.88048711413194,434.39227633875C449.7344944774851,434.39227633875,449.7344944774851,440.2289107775,437.5885018408383,440.2289107775C425.4425092041914,440.2289107775,425.4425092041914,431.20974750625,413.2965165675446,431.20974750625C401.11724723874255,431.20974750625,401.11724723874255,439.8446334975,388.9379779099405,439.8446334975C376.7919852732937,439.8446334975,376.7919852732937,401.36425761375,364.64599263664684,401.36425761375C352.5,401.36425761375,352.5,442.06743644375,340.35400736335316,442.06743644375C328.2066281978665,442.06743644375,328.2066281978665,408.45522498,316.05924903237985,408.45522498C303.8799797035779,408.45522498,303.8799797035779,440.64740760375,291.70071037477584,440.64740760375C279.55610426696876,440.64740760375,279.55610426696876,428.74805772625,267.4114981591617,428.74805772625C255.26550552251484,428.74805772625,255.26550552251484,449.37029677374994,243.119512885868,449.37029677374994C230.97352024922117,449.37029677374994,230.97352024922117,468.25409728625,218.82752761257433,468.25409728625C206.6482582837723,468.25409728625,206.6482582837723,518.4738647312499,194.46898895497026,518.4738647312499C182.32299631832342,518.4738647312499,182.32299631832342,564.021901655,170.17700368167658,564.021901655C158.03101104502974,564.021901655,158.03101104502974,513.0342950475,145.8850184083829,513.0342950475C133.73902577173607,513.0342950475,133.73902577173607,513.50185229625,121.59303313508921,513.50185229625C109.41376380628716,513.50185229625,109.41376380628716,533.5217288812499,97.23449447748513,533.5217288812499C85.08850184083829,533.5217288812499,85.08850184083829,564.69568162625,72.94250920419145,564.69568162625C60.796516567544614,564.69568162625,60.796516567544614,569.9783891625,48.65052393089777,569.9783891625C36.504531294250924,569.9783891625,36.504531294250924,569.99999926375,24.35853865760408,569.99999926375C12.17926932880204,569.99999926375,12.17926932880204,569.9999990975,0,569.9999990975Z"><title>Alemania</title></path></g><g id="xAxis" transform="translate(0,570)" fill="none" font-size="10" font-family="sans-serif" text-anchor="middle"><path class="domain" stroke="currentColor" d="M0,0H705"/><g class="tick" opacity="1" transform="translate(0.06655338431039366,0)"><line stroke="currentColor" y2="6"/><text fill="currentColor" y="9" dy="0.71em">1996</text></g><g class="tick" opacity="1" transform="translate(48.71707731520816,0)"><line stroke="currentColor" y2="6"/><text fill="currentColor" y="9" dy="0.71em">1998</text></g><g class="tick" opacity="1" transform="translate(97.30104786179554,0)"><line stroke="currentColor" y2="6"/><text fill="currentColor" y="9" dy="0.71em">2000</text></g><g class="tick" opacity="1" transform="translate(145.95157179269327,0)"><line stroke="currentColor" y2="6"/><text fill="currentColor" y="9" dy="0.71em">2002</text></g><g class="tick" opacity="1" transform="translate(194.53554233928065,0)"><line stroke="currentColor" y2="6"/><text fill="currentColor" y="9" dy="0.71em">2004</text></g><g class="tick" opacity="1" transform="translate(243.18606627017843,0)"><line stroke="currentColor" y2="6"/><text fill="currentColor" y="9" dy="0.71em">2006</text></g><g class="tick" opacity="1" transform="translate(291.7672637590862,0)"><line stroke="currentColor" y2="6"/><text fill="currentColor" y="9" dy="0.71em">2008</text></g><g class="tick" opacity="1" transform="translate(340.42056074766356,0)"><line stroke="currentColor" y2="6"/><text fill="currentColor" y="9" dy="0.71em">2010</text></g><g class="tick" opacity="1" transform="translate(389.00453129425097,0)"><line stroke="currentColor" y2="6"/><text fill="currentColor" y="9" dy="0.71em">2012</text></g><g class="tick" opacity="1" transform="translate(437.65505522514866,0)"><line stroke="currentColor" y2="6"/><text fill="currentColor" y="9" dy="0.71em">2014</text></g><g class="tick" opacity="1" transform="translate(486.239025771736,0)"><line stroke="currentColor" y2="6"/><text fill="currentColor" y="9" dy="0.71em">2016</text></g><g class="tick" opacity="1" transform="translate(534.8895497026339,0)"><line stroke="currentColor" y2="6"/><text fill="currentColor" y="9" dy="0.71em">2018</text></g><g class="tick" opacity="1" transform="translate(583.4735202492212,0)"><line stroke="currentColor" y2="6"/><text fill="currentColor" y="9" dy="0.71em">2020</text></g><g class="tick" opacity="1" transform="translate(632.124044180119,0)"><line stroke="currentColor" y2="6"/><text fill="currentColor" y="9" dy="0.71em">2022</text></g><g class="tick" opacity="1" transform="translate(680.7080147267063,0)"><line stroke="currentColor" y2="6"/><text fill="currentColor" y="9" dy="0.71em">2024</text></g></g><g id="yAxis" fill="none" font-size="10" font-family="sans-serif" text-anchor="end"><path class="domain" stroke="currentColor" d="M0,570V0"/><g class="tick" opacity="1" transform="translate(0,570)"><line stroke="currentColor" x2="-6"/><text fill="currentColor" x="-9" dy="0.32em">0</text></g><g class="tick" opacity="1" transform="translate(0,522.5)"><line stroke="currentColor" x2="-6"/><text fill="currentColor" x="-9" dy="0.32em">2,000,000,000</text></g><g class="tick" opacity="1" transform="translate(0,475)"><line stroke="currentColor" x2="-6"/><text fill="currentColor" x="-9" dy="0.32em">4,000,000,000</text></g><g class="tick" opacity="1" transform="translate(0,427.5)"><line stroke="currentColor" x2="-6"/><text fill="currentColor" x="-9" dy="0.32em">6,000,000,000</text></g><g class="tick" opacity="1" transform="translate(0,380.00000000000006)"><line stroke="currentColor" x2="-6"/><text fill="currentColor" x="-9" dy="0.32em">8,000,000,000</text></g><g class="tick" opacity="1" transform="translate(0,332.49999999999994)"><line stroke="currentColor" x2="-6"/><text fill="currentColor" x="-9" dy="0.32em">10,000,000,000</text></g><g class="tick" opacity="1" transform="translate(0,285)"><line stroke="currentColor" x2="-6"/><text fill="currentColor" x="-9" dy="0.32em">12,000,000,000</text></g><g class="tick" opacity="1" transform="translate(0,237.49999999999997)"><line stroke="currentColor" x2="-6"/><text fill="currentColor" x="-9" dy="0.32em">14,000,000,000</text></g><g class="tick" opacity="1" transform="translate(0,190.00000000000003)"><line stroke="currentColor" x2="-6"/><text fill="currentColor" x="-9" dy="0.32em">16,000,000,000</text></g><g class="tick" opacity="1" transform="translate(0,142.5)"><line stroke="currentColor" x2="-6"/><text fill="currentColor" x="-9" dy="0.32em">18,000,000,000</text></g><g class="tick" opacity="1" transform="translate(0,94.99999999999999)"><line stroke="currentColor" x2="-6"/><text fill="currentColor" x="-9" dy="0.32em">20,000,000,000</text></g><g class="tick" opacity="1" transform="translate(0,47.50000000000002)"><line stroke="currentColor" x2="-6"/><text fill="currentColor" x="-9" dy="0.32em">22,000,000,000</text></g><g class="tick" opacity="1" transform="translate(0,0)"><line stroke="currentColor" x2="-6"/><text fill="currentColor" x="-9" dy="0.32em">24,000,000,000</text></g></g><text y="566" x="705" text-anchor="end" style="font-family: Arial, sans-serif; font-size: 12px; fill: rgb(123, 123, 123); font-weight: bold;">PERIODO</text><text x="4" text-anchor="start" dominant-baseline="hanging" style="font-family: Arial, sans-serif; font-size: 12px; fill: rgb(123, 123, 123); font-weight: bold;">TOTAL</text><g id="labels"><text x="0" y="569.99999954875" text-anchor="start" alignment-baseline="middle" style="font-family: Arial, sans-serif; font-size: 10px; fill: black; font-weight: bold;">Paraguay</text><text x="680.6414613423959" y="454.951675700625" text-anchor="middle" alignment-baseline="middle" style="font-family: Arial, sans-serif; font-size: 10px; fill: black; font-weight: bold;">Estados Unidos</text><text x="680.6414613423959" y="244.695775558125" text-anchor="middle" alignment-baseline="middle" style="font-family: Arial, sans-serif; font-size: 10px; fill: black; font-weight: bold;">Resto</text><text x="316.05924903237985" y="424.3093406875" text-anchor="middle" alignment-baseline="middle" style="font-family: Arial, sans-serif; font-size: 10px; fill: black; font-weight: bold;">Reino Unido</text><text x="632.0574907958086" y="329.5923831175" text-anchor="middle" alignment-baseline="middle" style="font-family: Arial, sans-serif; font-size: 10px; fill: black; font-weight: bold;">China</text><text x="534.8229963183234" y="233.64091904874996" text-anchor="middle" alignment-baseline="middle" style="font-family: Arial, sans-serif; font-size: 10px; fill: black; font-weight: bold;">Japon</text><text x="534.8229963183234" y="117.14373047625" text-anchor="middle" alignment-baseline="middle" style="font-family: Arial, sans-serif; font-size: 10px; fill: black; font-weight: bold;">Belgica</text><text x="559.1149815916172" y="188.09857359874997" text-anchor="middle" alignment-baseline="middle" style="font-family: Arial, sans-serif; font-size: 10px; fill: black; font-weight: bold;">Corea</text><text x="583.4069668649108" y="236.83568473625002" text-anchor="middle" alignment-baseline="middle" style="font-family: Arial, sans-serif; font-size: 10px; fill: black; font-weight: bold;">Rusia</text><text x="632.0574907958086" y="127.53257793124997" text-anchor="middle" alignment-baseline="middle" style="font-family: Arial, sans-serif; font-size: 10px; fill: black; font-weight: bold;">Alemania</text></g></g><text x="4" y="4" style="font-family: Arial, sans-serif; font-size: 12px; fill: black; font-weight: bold; dominant-baseline: hanging;"/></g></g></svg>